<svg width="36.832031" height="36.833130" viewBox="0 0 36.832 36.8331" fill="none" xmlns="http://www.w3.org/2000/svg" xmlns:xlink="http://www.w3.org/1999/xlink">
	<desc>
			Created with Pixso.
	</desc>
	<defs/>
	<path id="Vector" d="M33.7 22.05C33.4 21.31 32.57 20.96 31.83 21.26C31.09 21.55 30.73 22.39 31.03 23.13L32.73 27.32L27.69 25.1C27.33 24.94 26.92 24.94 26.55 25.09C24.83 25.83 22.99 26.2 21.07 26.2C13.37 26.2 8.19 20.17 8.19 14.54C8.19 8.11 13.97 2.87 21.07 2.87C28.17 2.87 33.95 8.11 33.95 14.54C33.95 15.04 33.91 15.64 33.82 16.18C33.71 16.97 34.25 17.7 35.03 17.82C35.82 17.94 36.55 17.4 36.67 16.61C36.77 15.92 36.83 15.18 36.83 14.54C36.83 10.63 35.17 6.96 32.17 4.21C29.2 1.49 25.26 0 21.07 0C16.89 0 12.95 1.49 9.98 4.21C7.29 6.67 5.69 9.86 5.37 13.3C2 15.54 0 19.12 0 22.98C0 25.39 0.76 27.68 2.2 29.65L0.1 34.85C-0.12 35.39 0.01 36.01 0.43 36.42C0.71 36.69 1.07 36.83 1.43 36.83C1.63 36.83 1.83 36.79 2.01 36.71L8.07 34.03C9.6 34.6 11.21 34.89 12.87 34.89C12.91 34.89 12.94 34.89 12.98 34.88C15.39 34.87 17.72 34.23 19.75 33.05C21.56 31.99 23.05 30.53 24.1 28.81C25.12 28.63 26.12 28.35 27.09 27.98L34.81 31.38C35 31.46 35.19 31.5 35.39 31.5C35.76 31.5 36.12 31.36 36.39 31.1C36.81 30.69 36.94 30.07 36.72 29.53L33.7 22.05ZM12.87 32.01C12.85 32.01 12.83 32.01 12.82 32.01C11.35 32 9.93 31.71 8.61 31.15C8.25 31 7.83 31 7.46 31.16L4.1 32.64L5.18 29.95C5.39 29.46 5.29 28.89 4.94 28.48C3.59 26.89 2.87 24.99 2.87 22.98C2.87 20.68 3.84 18.5 5.53 16.85C6.06 19.72 7.55 22.47 9.79 24.63C12.58 27.32 16.27 28.87 20.26 29.06C18.39 30.9 15.71 32.01 12.87 32.01Z" fill="#020202" fill-opacity="1.000000" fill-rule="nonzero"/>
	<path id="Vector" d="M27.09 27.98L34.81 31.38C35 31.46 35.19 31.5 35.39 31.5C35.76 31.5 36.12 31.36 36.39 31.1C36.81 30.69 36.94 30.07 36.72 29.53L33.7 22.05C33.4 21.31 32.57 20.96 31.83 21.26C31.09 21.55 30.73 22.39 31.03 23.13L32.46 26.66L32.73 27.32L32.07 27.03L27.69 25.1C27.33 24.94 26.92 24.94 26.55 25.09C24.83 25.83 22.99 26.2 21.07 26.2C13.37 26.2 8.19 20.17 8.19 14.54C8.19 8.11 13.97 2.87 21.07 2.87C28.17 2.87 33.95 8.11 33.95 14.54C33.95 15.04 33.91 15.64 33.82 16.18C33.71 16.97 34.25 17.7 35.03 17.82C35.82 17.94 36.55 17.4 36.67 16.61C36.77 15.92 36.83 15.18 36.83 14.54C36.83 10.63 35.17 6.96 32.17 4.21C29.2 1.49 25.26 0 21.07 0C16.89 0 12.95 1.49 9.98 4.21C7.29 6.67 5.69 9.86 5.37 13.3C2 15.54 0 19.12 0 22.98C0 25.39 0.76 27.68 2.2 29.65L0.1 34.85C-0.12 35.39 0.01 36.01 0.43 36.42C0.71 36.69 1.07 36.83 1.43 36.83C1.63 36.83 1.83 36.79 2.01 36.71L8.07 34.03C9.6 34.6 11.21 34.89 12.87 34.89C12.91 34.89 12.94 34.89 12.98 34.88C15.39 34.87 17.72 34.23 19.75 33.05C21.56 31.99 23.05 30.53 24.1 28.81C25.12 28.63 26.12 28.35 27.09 27.98ZM31.71 21.92Q31.83 21.79 32.01 21.72L32.01 21.72Q32.19 21.65 32.37 21.65Q32.55 21.65 32.73 21.72Q32.91 21.8 33.04 21.93Q33.16 22.06 33.24 22.24L36.26 29.71Q36.38 30.01 36.32 30.26Q36.27 30.52 36.04 30.74Q35.91 30.87 35.75 30.94Q35.58 31 35.39 31Q35.3 31 35.21 30.99Q35.1 30.97 35.01 30.92L27.1 27.44L26.91 27.51Q26.41 27.7 25.9 27.86Q24.98 28.15 24.01 28.32L23.79 28.36L23.67 28.55Q23.15 29.41 22.5 30.15Q21.24 31.6 19.5 32.62Q18.32 33.31 17.05 33.73Q15.12 34.37 12.98 34.38L12.96 34.38L12.94 34.39L12.94 34.39Q12.89 34.39 12.87 34.39Q11.24 34.39 9.71 34.01Q8.97 33.83 8.25 33.57L8.06 33.5L1.81 36.25Q1.72 36.29 1.63 36.31Q1.53 36.33 1.43 36.33Q1.25 36.33 1.08 36.26Q0.92 36.2 0.78 36.06Q0.55 35.84 0.5 35.59Q0.44 35.33 0.57 35.04L2.77 29.58L2.6 29.36Q1.46 27.79 0.93 26.04Q0.5 24.58 0.5 22.98Q0.5 20.42 1.49 18.32Q2.76 15.63 5.65 13.72L5.85 13.58L5.87 13.34Q6.07 11.25 6.84 9.4Q7.97 6.73 10.32 4.58Q12.21 2.85 14.43 1.85Q17.45 0.5 21.07 0.5Q24.7 0.5 27.71 1.85Q29.94 2.85 31.83 4.58Q34.38 6.91 35.48 9.79Q36.33 12 36.33 14.54Q36.33 15.5 36.17 16.54Q36.14 16.73 36.05 16.88Q35.96 17.04 35.8 17.15Q35.65 17.27 35.48 17.31Q35.3 17.35 35.11 17.33Q34.64 17.26 34.44 16.99Q34.25 16.72 34.32 16.26Q34.45 15.36 34.45 14.54Q34.45 12.41 33.75 10.55Q32.79 7.99 30.51 5.92Q28.87 4.44 26.96 3.58Q24.29 2.37 21.07 2.37Q17.86 2.37 15.19 3.58Q13.27 4.44 11.64 5.92Q9.35 7.99 8.39 10.55Q7.69 12.41 7.69 14.54Q7.69 16.08 8.1 17.52Q8.92 20.41 11.4 22.84Q13.1 24.51 15.14 25.45Q17.82 26.7 21.07 26.7Q22.98 26.7 24.77 26.23Q25.78 25.97 26.75 25.55Q26.93 25.47 27.12 25.48Q27.31 25.48 27.5 25.56L33.65 28.27L31.5 22.94Q31.42 22.76 31.42 22.58Q31.43 22.4 31.5 22.22Q31.58 22.04 31.71 21.92ZM9.91 32.13Q11.31 32.5 12.81 32.51L12.82 32.51L12.83 32.51Q12.85 32.51 12.87 32.51L12.87 32.51Q15.49 32.51 17.64 31.5Q19.26 30.74 20.61 29.42L21.42 28.61L20.28 28.56Q16.87 28.4 14.05 27.03Q11.92 25.99 10.14 24.27Q8.04 22.25 6.95 19.79Q6.32 18.35 6.02 16.76L5.85 15.84L5.18 16.49Q3.56 18.08 2.87 20Q2.37 21.4 2.37 22.98Q2.37 24.36 2.76 25.61Q3.3 27.32 4.56 28.81Q4.75 29.02 4.79 29.26Q4.83 29.5 4.72 29.77L3.17 33.6L7.67 31.62Q7.85 31.53 8.04 31.53Q8.23 31.53 8.41 31.61Q9.14 31.92 9.91 32.13ZM12.87 32.01C12.85 32.01 12.83 32.01 12.82 32.01C11.35 32 9.93 31.71 8.61 31.15C8.25 31 7.83 31 7.46 31.16L4.75 32.35L4.1 32.64L4.37 31.98L5.18 29.95C5.39 29.46 5.29 28.89 4.94 28.48C3.59 26.89 2.87 24.99 2.87 22.98C2.87 20.88 3.68 18.88 5.11 17.29C5.25 17.14 5.39 16.99 5.53 16.85C5.57 17.05 5.61 17.24 5.66 17.44C6.26 20.1 7.7 22.62 9.79 24.63C12.42 27.16 15.85 28.69 19.58 29.01C19.8 29.03 20.03 29.05 20.26 29.06C20.09 29.22 19.92 29.38 19.74 29.53C17.91 31.09 15.46 32.01 12.87 32.01Z" fill="#F5FAFF" fill-opacity="1.000000" fill-rule="evenodd"/>
	<path id="Vector" d="M21 16.04C21.8 16.04 22.44 15.39 22.44 14.6C22.44 13.8 21.8 13.16 21 13.16C20.21 13.16 19.56 13.8 19.56 14.6C19.56 15.39 20.21 16.04 21 16.04Z" fill="#020202" fill-opacity="1.000000" fill-rule="nonzero"/>
	<path id="Vector" d="" fill="#F5FAFF" fill-opacity="0" fill-rule="evenodd"/>
	<path id="Vector" d="M26.76 16.04C27.55 16.04 28.2 15.39 28.2 14.6C28.2 13.8 27.55 13.16 26.76 13.16C25.96 13.16 25.32 13.8 25.32 14.6C25.32 15.39 25.96 16.04 26.76 16.04Z" fill="#020202" fill-opacity="1.000000" fill-rule="nonzero"/>
	<path id="Vector" d="" fill="#F5FAFF" fill-opacity="0" fill-rule="evenodd"/>
	<path id="Vector" d="M15.25 16.04C16.04 16.04 16.69 15.39 16.69 14.6C16.69 13.8 16.04 13.16 15.25 13.16C14.45 13.16 13.81 13.8 13.81 14.6C13.81 15.39 14.45 16.04 15.25 16.04Z" fill="#020202" fill-opacity="1.000000" fill-rule="nonzero"/>
	<path id="Vector" d="" fill="#F5FAFF" fill-opacity="0" fill-rule="evenodd"/>
</svg>
