<svg width="47.443848" height="61.503380" viewBox="0 0 47.4438 61.5034" fill="none" xmlns="http://www.w3.org/2000/svg" xmlns:xlink="http://www.w3.org/1999/xlink">
	<desc>
			Created with Pixso.
	</desc>
	<defs/>
	<path id="Vector" d="M26.4 7.08C25.23 6.07 23.73 5.57 22.19 5.69C20.89 5.78 19.69 6.3 18.75 7.14C17.1 5.14 14.24 4.43 11.79 5.59C9.34 6.75 8.08 9.41 8.59 11.96C7.34 12.15 6.19 12.75 5.29 13.7C4.22 14.82 3.66 16.29 3.7 17.83C3.74 19.38 4.38 20.82 5.5 21.88C5.88 22.24 6.72 22.76 10.06 23.82C11.27 24.21 12.49 24.57 13.39 24.83C12.36 27.36 12.35 30.29 13.61 32.95C14.92 35.7 19 41.94 23.32 47.2C25.73 50.14 27.89 52.4 29.74 53.91C32.24 55.95 34.17 56.61 35.64 55.91C37.11 55.21 37.83 53.3 37.83 50.07C37.84 47.69 37.46 44.58 36.71 40.86C35.36 34.18 33.12 27.07 31.82 24.32C30.56 21.66 28.28 19.81 25.67 19.01C26.04 18.15 26.54 16.98 27.01 15.79C28.29 12.54 28.43 11.56 28.39 11.03C28.28 9.49 27.57 8.09 26.4 7.08ZM12.73 7.55C14.53 6.7 16.69 7.47 17.54 9.27C18.16 10.57 18.98 15.6 19.53 19.08C19.15 19.2 18.77 19.35 18.4 19.53C18.04 19.7 17.69 19.89 17.36 20.1C14.78 17.22 11.6 13.62 11 12.37C10.15 10.57 10.92 8.41 12.73 7.55ZM7 20.3C6.3 19.64 5.9 18.74 5.87 17.78C5.85 16.81 6.2 15.89 6.87 15.19C7.56 14.46 8.49 14.07 9.48 14.06C10.51 15.64 12.73 18.18 15.65 21.46C15.21 21.89 14.81 22.36 14.46 22.87C10.13 21.66 7.44 20.67 7 20.3ZM29.85 25.25C31.1 27.89 33.26 34.77 34.58 41.29C36.42 50.45 35.53 53.55 34.71 53.94C33.98 54.28 31.57 53.32 26.91 48.07L29.95 46.63C30.49 46.37 30.73 45.72 30.47 45.18C30.21 44.63 29.56 44.4 29.02 44.66L25.44 46.36C25.29 46.18 25.15 46.01 25 45.82C20.79 40.68 16.83 34.65 15.58 32.02C13.71 28.08 15.4 23.36 19.33 21.5C23.27 19.63 27.99 21.32 29.85 25.25ZM26.22 11.18C26.23 11.76 25.29 14.47 23.48 18.59C22.88 18.54 22.27 18.55 21.66 18.62C21.01 14.53 20.41 11.03 19.82 9.17C20.45 8.4 21.35 7.93 22.35 7.85C23.31 7.78 24.25 8.09 24.98 8.72C25.71 9.35 26.15 10.23 26.22 11.18Z" fill="#000000" fill-opacity="1.000000" fill-rule="nonzero"/>
	<path id="Vector" d="M25.87 18.55C26.21 17.75 26.62 16.78 27.01 15.79C28.29 12.54 28.43 11.56 28.39 11.03C28.28 9.49 27.57 8.09 26.4 7.08C25.23 6.07 23.73 5.57 22.19 5.69C21.06 5.77 20.01 6.17 19.14 6.83C19 6.93 18.87 7.03 18.75 7.14C18.64 7.01 18.53 6.89 18.42 6.77C16.74 5.05 14.08 4.5 11.79 5.59C9.5 6.67 8.25 9.07 8.52 11.46C8.54 11.63 8.56 11.79 8.59 11.96C8.43 11.98 8.27 12.01 8.1 12.05C7.04 12.31 6.07 12.87 5.29 13.7C4.22 14.82 3.66 16.29 3.7 17.83C3.74 19.38 4.38 20.82 5.5 21.88C5.88 22.24 6.72 22.76 10.06 23.82C11.07 24.15 12.08 24.45 12.91 24.69C13.08 24.74 13.24 24.78 13.39 24.83C13.33 24.98 13.27 25.14 13.22 25.3C12.37 27.71 12.43 30.45 13.61 32.95C14.92 35.7 19 41.94 23.32 47.2C25.73 50.14 27.89 52.4 29.74 53.91C32.24 55.95 34.17 56.61 35.64 55.91C37.11 55.21 37.83 53.3 37.83 50.07C37.84 47.69 37.46 44.58 36.71 40.86C35.36 34.18 33.12 27.07 31.82 24.32C30.64 21.83 28.56 20.04 26.15 19.17C25.99 19.11 25.83 19.06 25.67 19.01C25.74 18.86 25.8 18.71 25.87 18.55ZM20.44 6.63Q21.27 6.25 22.23 6.18L22.23 6.18Q23.32 6.1 24.28 6.42Q25.24 6.74 26.07 7.45Q26.9 8.17 27.35 9.07Q27.81 9.98 27.89 11.07Q27.96 12.02 26.54 15.61Q25.96 17.08 25.21 18.81L24.99 19.32L25.52 19.49Q27.57 20.12 29.04 21.4Q30.48 22.65 31.37 24.53Q34.05 30.21 36.22 40.96Q37.34 46.52 37.33 50.07Q37.33 54.45 35.52 55.41Q35.47 55.43 35.43 55.46Q35.38 55.48 35.33 55.5Q33.44 56.29 30.05 53.52Q27.3 51.28 23.7 46.89Q16.75 38.41 14.06 32.73Q13.17 30.85 13.11 28.94Q13.05 26.99 13.86 25.02L14.07 24.5L13.53 24.35Q11.71 23.83 10.21 23.35Q6.54 22.17 5.85 21.52Q5.05 20.76 4.64 19.84Q4.23 18.91 4.2 17.82Q4.17 16.73 4.53 15.78Q4.89 14.84 5.65 14.04Q6.31 13.34 7.12 12.94Q7.84 12.58 8.67 12.45L9.19 12.37L9.08 11.86Q8.68 9.83 9.41 8.38Q10.14 6.92 12.01 6.04Q13.88 5.15 15.47 5.51Q17.05 5.87 18.36 7.46L18.7 7.86L19.08 7.52Q19.71 6.95 20.44 6.63ZM20.02 19Q18.68 10.51 17.99 9.05Q17.63 8.29 17.06 7.77Q16.47 7.23 15.66 6.94Q14.85 6.66 14.06 6.7Q13.28 6.74 12.51 7.1Q11.75 7.46 11.22 8.04Q10.69 8.63 10.4 9.44Q10.11 10.25 10.15 11.04Q10.19 11.82 10.55 12.58Q11.22 13.98 16.98 20.44L17.27 20.75L17.62 20.53Q18.11 20.22 18.62 19.98Q19.14 19.74 19.69 19.55L20.09 19.42L20.02 19ZM12.73 7.55C14.53 6.7 16.69 7.47 17.54 9.27C18.16 10.57 18.98 15.6 19.53 19.08C19.15 19.2 18.77 19.35 18.4 19.53C18.04 19.7 17.69 19.89 17.36 20.1C14.78 17.22 11.6 13.62 11 12.37C10.15 10.57 10.92 8.41 12.73 7.55ZM22.75 19.06Q23.1 19.06 23.44 19.09L23.8 19.12L23.94 18.79Q26.73 12.42 26.72 11.18L26.72 11.16L26.72 11.15Q26.66 10.32 26.31 9.63Q25.96 8.91 25.3 8.34Q24.66 7.79 23.91 7.54Q23.16 7.29 22.31 7.36Q21.42 7.42 20.69 7.8Q19.98 8.18 19.43 8.85L19.26 9.06L19.34 9.32Q20.01 11.41 21.17 18.69L21.24 19.16L21.71 19.11Q22.23 19.06 22.75 19.06ZM5.63 16.2Q5.35 16.94 5.37 17.79L5.37 17.79Q5.4 18.64 5.72 19.36Q6.04 20.08 6.65 20.66L6.67 20.67L6.68 20.68Q7.63 21.48 14.32 23.35L14.67 23.44L14.87 23.15Q15.08 22.84 15.32 22.55Q15.64 22.17 16 21.81L16.34 21.48L16.02 21.12Q11.05 15.55 9.9 13.79L9.75 13.56L9.48 13.56Q8.61 13.57 7.88 13.88Q7.12 14.2 6.5 14.85Q5.92 15.47 5.63 16.2ZM26.22 11.18C26.23 11.76 25.29 14.47 23.48 18.59C22.88 18.54 22.27 18.55 21.66 18.62C21.01 14.53 20.41 11.03 19.82 9.17C20.45 8.4 21.35 7.93 22.35 7.85C23.31 7.78 24.25 8.09 24.98 8.72C25.71 9.35 26.15 10.23 26.22 11.18ZM7 20.3C6.3 19.64 5.9 18.74 5.87 17.78C5.85 16.81 6.2 15.89 6.87 15.19C7.56 14.46 8.49 14.07 9.48 14.06C10.51 15.64 12.73 18.18 15.65 21.46C15.21 21.89 14.81 22.36 14.46 22.87C10.13 21.66 7.44 20.67 7 20.3ZM34.92 54.39Q37.48 53.18 35.07 41.19Q32.93 30.58 30.3 25.04Q29.57 23.48 28.39 22.41Q27.19 21.32 25.54 20.73Q23.88 20.14 22.26 20.22Q20.67 20.31 19.12 21.04Q17.56 21.78 16.49 22.96Q15.4 24.16 14.81 25.81Q14.22 27.47 14.31 29.08Q14.39 30.67 15.13 32.23Q17.75 37.77 24.61 46.14L25.3 46.98L29.23 45.11Q29.5 44.99 29.7 45.06Q29.89 45.13 30.02 45.39Q30.14 45.66 30.07 45.85Q30 46.05 29.74 46.17L26.09 47.9L26.53 48.4Q32.76 55.42 34.92 54.39ZM29.85 25.25C31.1 27.89 33.26 34.77 34.58 41.29C36.42 50.45 35.53 53.55 34.71 53.94C34 54.28 31.69 53.37 27.26 48.46C27.14 48.33 27.03 48.2 26.91 48.07L29.95 46.63C30.49 46.37 30.73 45.72 30.47 45.18C30.21 44.63 29.56 44.4 29.02 44.66L25.44 46.36C25.29 46.18 25.15 46.01 25 45.82C20.79 40.68 16.83 34.65 15.58 32.02C13.71 28.08 15.4 23.36 19.33 21.5C23.27 19.63 27.99 21.32 29.85 25.25Z" fill="#F5FAFF" fill-opacity="1.000000" fill-rule="evenodd"/>
	<path id="Vector" d="M22.63 28.61C22.38 28.07 21.73 27.83 21.19 28.09L17.71 29.74C17.17 30 16.93 30.65 17.19 31.19C17.45 31.73 18.1 31.96 18.64 31.71L22.12 30.06C22.66 29.8 22.89 29.15 22.63 28.61Z" fill="#000000" fill-opacity="1.000000" fill-rule="nonzero"/>
	<path id="Vector" d="M21.19 28.09C21.73 27.83 22.38 28.07 22.63 28.61C22.89 29.15 22.66 29.8 22.12 30.06L18.64 31.71C18.1 31.96 17.45 31.73 17.19 31.19C16.93 30.65 17.17 30 17.71 29.74L21.19 28.09ZM17.92 30.19L21.4 28.54Q21.51 28.49 21.62 28.49Q21.74 28.48 21.85 28.52Q21.96 28.56 22.05 28.64Q22.13 28.71 22.18 28.82Q22.24 28.93 22.24 29.05Q22.25 29.16 22.21 29.27Q22.16 29.39 22.09 29.47Q22.01 29.55 21.9 29.61L18.43 31.25Q18.32 31.31 18.2 31.31Q18.09 31.32 17.98 31.28Q17.86 31.24 17.78 31.16Q17.7 31.08 17.64 30.97Q17.59 30.86 17.59 30.75Q17.58 30.64 17.62 30.53Q17.66 30.41 17.74 30.33Q17.81 30.24 17.92 30.19Z" fill="#F5FAFF" fill-opacity="1.000000" fill-rule="evenodd"/>
	<path id="Vector" d="M29.79 32.8L24.23 35.44C23.68 35.7 23.45 36.35 23.71 36.89C23.97 37.43 24.62 37.66 25.16 37.41L30.72 34.77C31.27 34.51 31.5 33.86 31.24 33.32C30.98 32.78 30.34 32.55 29.79 32.8Z" fill="#000000" fill-opacity="1.000000" fill-rule="nonzero"/>
	<path id="Vector" d="M24.23 35.44L29.79 32.8C30.34 32.55 30.98 32.78 31.24 33.32C31.5 33.86 31.27 34.51 30.72 34.77L25.16 37.41C24.62 37.66 23.97 37.43 23.71 36.89C23.45 36.35 23.68 35.7 24.23 35.44ZM24.26 36.03Q24.33 35.94 24.44 35.89L30.01 33.25Q30.12 33.2 30.23 33.2Q30.34 33.19 30.46 33.23Q30.57 33.27 30.65 33.35Q30.74 33.42 30.79 33.53Q30.84 33.64 30.85 33.76Q30.85 33.87 30.81 33.98Q30.77 34.1 30.7 34.18Q30.62 34.26 30.51 34.32L24.95 36.95Q24.84 37.01 24.72 37.01Q24.61 37.02 24.5 36.98Q24.38 36.94 24.3 36.86Q24.21 36.78 24.16 36.67Q24.11 36.56 24.1 36.45Q24.1 36.34 24.14 36.23Q24.18 36.11 24.26 36.03Z" fill="#F5FAFF" fill-opacity="1.000000" fill-rule="evenodd"/>
</svg>
