<svg width="40.000000" height="18.000000" viewBox="0 0 40 18" fill="none" xmlns="http://www.w3.org/2000/svg" xmlns:xlink="http://www.w3.org/1999/xlink">
	<desc>
			Created with Pixso.
	</desc>
	<defs/>
	<path id="table" d="M38.94 0L8.42 0C8.1 0 7.83 0.32 7.83 0.72C7.83 1.12 8.1 1.44 8.42 1.44L38.82 1.44L38.82 4.23L1.17 4.23L1.17 1.44L6.08 1.44C6.4 1.44 6.66 1.12 6.66 0.72C6.66 0.32 6.4 0 6.08 0L1.05 0C0.47 0 0 0.58 0 1.3L0 4.37C0 5.09 0.47 5.67 1.05 5.67L1.88 5.67L1.88 16.55C1.88 17.27 2.35 17.85 2.93 17.85L4.94 17.85C5.52 17.85 6 17.27 6 16.55C6 16.55 6 11.14 6 9.42C6 7.71 6 7.98 6 7.98C6 6.53 6 5.67 6 5.67L33.74 5.67C33.74 5.67 33.74 6.96 33.74 7.98C33.74 9 33.74 9 33.74 9.42C33.74 9.85 33.74 16.69 33.74 16.69C33.74 17.41 34.22 18 34.8 18L36.81 18C37.39 18 37.86 17.41 37.86 16.69L37.86 5.67L38.94 5.67C39.52 5.67 40 5.09 40 4.37L40 1.3C40 0.58 39.52 0 38.94 0ZM4.83 16.4L3.05 16.4L3.05 5.67L4.83 5.67L4.83 16.4ZM36.69 16.55L34.91 16.55L34.91 5.67L36.69 5.67L36.69 16.55Z" fill="#020202" fill-opacity="1.000000" fill-rule="nonzero"/>
</svg>
