<svg width="36.324951" height="54.645096" viewBox="0 0 36.325 54.6451" fill="none" xmlns="http://www.w3.org/2000/svg" xmlns:xlink="http://www.w3.org/1999/xlink">
	<desc>
			Created with Pixso.
	</desc>
	<defs/>
	<path id="Vector" d="M8.75 19.68C8.9 19.63 9.02 19.51 9.09 19.36C9.15 19.22 9.16 19.05 9.1 18.9L9.03 18.71C8.97 18.56 8.86 18.43 8.71 18.37C8.56 18.3 8.39 18.29 8.24 18.35C8.09 18.41 7.97 18.52 7.9 18.67C7.83 18.82 7.83 18.99 7.89 19.14L7.96 19.33C8.02 19.48 8.13 19.6 8.28 19.67C8.43 19.74 8.59 19.74 8.75 19.68Z" fill="#000000" fill-opacity="1.000000" fill-rule="nonzero"/>
	<path id="Vector" d="M12.99 30.9C13.14 30.85 13.27 30.73 13.33 30.58C13.4 30.44 13.4 30.27 13.35 30.12L10.04 21.37C9.98 21.22 9.86 21.1 9.72 21.03C9.57 20.96 9.4 20.96 9.25 21.01C9.1 21.07 8.97 21.19 8.91 21.33C8.84 21.48 8.84 21.65 8.89 21.8L12.21 30.55C12.26 30.7 12.38 30.82 12.53 30.89C12.67 30.96 12.84 30.96 12.99 30.9Z" fill="#000000" fill-opacity="1.000000" fill-rule="nonzero"/>
	<path id="Vector" d="M20.54 53.7L33.85 48.67C34.5 48.42 35.03 47.92 35.32 47.28C35.61 46.64 35.63 45.91 35.38 45.26L22.72 11.79C22.33 10.76 21.56 9.92 20.57 9.45C19.58 8.98 18.45 8.9 17.4 9.24L16.75 7.52L17.13 7.38C17.28 7.32 17.41 7.2 17.47 7.06C17.54 6.91 17.54 6.74 17.49 6.59L16.34 3.55C16.09 2.89 15.59 2.36 14.95 2.07C14.31 1.79 13.58 1.76 12.93 2.01L5.32 4.89C4.66 5.14 4.14 5.64 3.85 6.28C3.56 6.92 3.54 7.64 3.78 8.3L4.94 11.34C4.99 11.49 5.11 11.61 5.26 11.68C5.4 11.75 5.57 11.75 5.72 11.7L6.1 11.55L6.75 13.27C5.75 13.71 4.95 14.51 4.52 15.52C4.09 16.53 4.07 17.67 4.46 18.7L17.13 52.17C17.38 52.82 17.87 53.35 18.51 53.64C19.15 53.93 19.88 53.95 20.54 53.7ZM4.92 7.87C4.79 7.51 4.8 7.12 4.96 6.78C5.11 6.43 5.4 6.16 5.75 6.03L13.36 3.15C13.71 3.02 14.1 3.03 14.45 3.19C14.79 3.34 15.06 3.63 15.19 3.98L16.13 6.45L5.86 10.34L4.92 7.87ZM15.61 7.95L16.26 9.66L7.89 12.83L7.24 11.12L15.61 7.95ZM5.6 18.26C5.31 17.51 5.34 16.67 5.67 15.93C6 15.19 6.62 14.62 7.37 14.33L17.64 10.45C18.4 10.16 19.24 10.19 19.97 10.52C20.71 10.85 21.29 11.46 21.57 12.22L24.79 20.73L16.39 23.91C16.24 23.96 16.12 24.08 16.05 24.23C15.98 24.37 15.98 24.54 16.03 24.69L17.02 27.29C17.08 27.44 17.19 27.57 17.34 27.63C17.49 27.7 17.65 27.7 17.8 27.65C17.96 27.59 18.08 27.48 18.15 27.33C18.21 27.18 18.22 27.01 18.16 26.86L17.39 24.83L25.23 21.87L30.56 35.96L22.73 38.93L19.96 31.62C19.9 31.46 19.79 31.34 19.64 31.28C19.49 31.21 19.32 31.2 19.17 31.26C19.02 31.32 18.9 31.43 18.83 31.58C18.77 31.73 18.76 31.9 18.82 32.05L21.8 39.93C21.86 40.08 21.97 40.2 22.12 40.27C22.27 40.34 22.44 40.34 22.59 40.29L30.99 37.1L34.24 45.69C34.38 46.04 34.36 46.43 34.21 46.78C34.05 47.12 33.77 47.39 33.42 47.52L20.1 52.56C19.75 52.7 19.36 52.68 19.01 52.53C18.67 52.37 18.4 52.09 18.27 51.74L5.6 18.26Z" fill="#000000" fill-opacity="1.000000" fill-rule="nonzero"/>
</svg>
