<svg width="39.194580" height="39.197372" viewBox="0 0 39.1946 39.1974" fill="none" xmlns="http://www.w3.org/2000/svg" xmlns:xlink="http://www.w3.org/1999/xlink">
	<desc>
			Created with Pixso.
	</desc>
	<defs/>
	<path id="Vector" d="M30.63 14.77C29.97 14.77 29.48 15.29 29.48 15.92C29.48 16.54 29.97 17.08 30.63 17.08C31.26 17.08 31.78 16.57 31.78 15.92C31.78 15.28 31.26 14.77 30.63 14.77Z" fill="#020202" fill-opacity="1.000000" fill-rule="nonzero"/>
	<path id="Vector" d="" fill="#F5FAFF" fill-opacity="0" fill-rule="evenodd"/>
	<path id="Vector" d="M6.87 10.97C6.27 10.97 5.82 11.45 5.82 12C5.82 12.55 6.27 13.03 6.87 13.03C7.44 13.03 7.9 12.57 7.9 12C7.9 11.43 7.44 10.97 6.87 10.97Z" fill="#020202" fill-opacity="1.000000" fill-rule="nonzero"/>
	<path id="Vector" d="" fill="#F5FAFF" fill-opacity="0" fill-rule="evenodd"/>
	<path id="Vector" d="M39.17 23.09C37.84 14.37 33.2 7.72 24.54 6.05C23.94 4.88 22.84 3.16 21.01 1.86C17.76 -0.46 13.87 -0.42 10.07 0.9C8.93 1.31 9.08 2.89 10.21 3.12C12.91 3.73 14.05 5.08 14.71 6.26C12.39 6.77 10.98 7.41 9.37 8.47C9.28 8.53 9.19 8.59 9.1 8.65C8.5 9.06 8.41 9.91 8.93 10.42C9.32 10.81 9.94 10.87 10.39 10.55C10.46 10.49 10.55 10.45 10.64 10.39C11.46 9.85 12.15 9.48 12.87 9.19C14.59 8.52 16.73 8.13 18.57 7.99C20.77 7.83 23.03 7.96 25.12 8.52C20.56 12.12 20.31 17.5 22.61 22.84C17.76 21.88 13.98 20.4 13.9 20.37C9.86 18.75 5.61 19.71 2.32 23.68C2.34 21.48 2.92 18.5 5.16 15.45C5.51 14.98 5.46 14.35 5.06 13.95C4.57 13.46 3.74 13.5 3.32 14.07C0.15 18.35 -0.6 23.06 0.42 27.22C2.17 34.37 9.52 38.85 9.82 39.03C10 39.13 10.19 39.19 10.42 39.19C10.73 39.19 12.75 39.12 14.16 37.47C15.4 36.01 15.74 33.84 15.2 31.01C15.07 30.29 14.29 29.87 13.62 30.17C13.6 30.18 11.69 30.99 9.37 30.92C6.57 30.81 4.39 29.47 2.84 26.92C3.25 26.23 4.07 24.95 5.33 23.86C7.6 21.86 10.21 21.42 13.05 22.51C13.29 22.6 17.1 24.09 22.09 25.1C27.2 26.11 33.29 26.58 38.11 24.51C38.52 24.35 38.8 24.24 39.01 23.9C39.16 23.65 39.22 23.36 39.17 23.09ZM17.07 5.85C16.6 4.85 15.82 3.45 14.19 2.32C18.03 2.01 20.35 3.91 21.65 5.69C19.92 5.58 18.33 5.69 17.07 5.85ZM13.14 32.76C13.24 34.18 13 35.27 12.44 35.96C11.88 36.62 11.12 36.81 10.72 36.87C9.94 36.36 7.72 34.79 5.78 32.47C8.11 33.43 10.72 33.42 13.14 32.76ZM25.38 23.3C24.39 21.46 22.81 17.74 23.78 14.31C24.33 12.35 25.68 10.73 27.79 9.48C33.03 11.91 35.69 16.85 36.77 22.57C33.29 23.9 29.04 23.81 25.38 23.3Z" fill="#020202" fill-opacity="1.000000" fill-rule="nonzero"/>
	<path id="Vector" d="M24.54 6.05C23.94 4.88 22.84 3.16 21.01 1.86C17.76 -0.46 13.87 -0.42 10.07 0.9C8.93 1.31 9.08 2.89 10.21 3.12C12.57 3.65 13.74 4.75 14.44 5.81C14.54 5.96 14.63 6.11 14.71 6.26C14.54 6.3 14.37 6.34 14.2 6.38C12.18 6.87 10.86 7.49 9.37 8.47L9.1 8.65C8.5 9.06 8.41 9.91 8.93 10.42C9.32 10.81 9.94 10.87 10.39 10.55C10.46 10.49 10.55 10.45 10.64 10.39C11.46 9.85 12.15 9.48 12.87 9.19C14.59 8.52 16.73 8.13 18.57 7.99C20.56 7.85 22.59 7.94 24.51 8.37C24.72 8.41 24.92 8.46 25.12 8.52C24.96 8.65 24.8 8.78 24.65 8.91C20.69 12.38 20.41 17.32 22.38 22.28C22.45 22.47 22.53 22.65 22.61 22.84C22.41 22.8 22.21 22.76 22.02 22.72C17.46 21.76 13.97 20.4 13.9 20.37C10.07 18.84 6.05 19.62 2.84 23.09C2.66 23.27 2.49 23.47 2.32 23.68C2.32 23.42 2.33 23.15 2.35 22.87C2.49 20.78 3.18 18.14 5.16 15.45C5.51 14.98 5.46 14.35 5.06 13.95C4.57 13.46 3.74 13.5 3.32 14.07C0.15 18.35 -0.6 23.06 0.42 27.22C2.17 34.37 9.52 38.85 9.82 39.03C10 39.13 10.19 39.19 10.42 39.19C10.73 39.19 12.75 39.12 14.16 37.47C15.4 36.01 15.74 33.84 15.2 31.01C15.07 30.29 14.29 29.87 13.62 30.17C13.6 30.18 11.69 30.99 9.37 30.92C6.57 30.81 4.39 29.47 2.84 26.92C3.25 26.23 4.07 24.95 5.33 23.86C7.6 21.86 10.21 21.42 13.05 22.51C13.29 22.6 17.1 24.09 22.09 25.1C27.2 26.11 33.29 26.58 38.11 24.51C38.52 24.35 38.8 24.24 39.01 23.9C39.16 23.65 39.22 23.36 39.17 23.09C37.84 14.37 33.2 7.72 24.54 6.05ZM13.89 30.6Q12.82 31.53 9.35 31.42Q7.42 31.35 5.86 30.54Q3.82 29.49 2.42 27.18L2.26 26.93L2.41 26.67Q3.54 24.74 5 23.48Q6.79 21.91 8.8 21.54Q10.89 21.14 13.23 22.04Q13.24 22.04 13.28 22.06Q17.45 23.65 22.19 24.61Q32.05 26.57 37.92 24.05Q37.94 24.04 37.97 24.03Q38.47 23.83 38.58 23.64Q38.69 23.46 38.69 23.27Q38.69 23.22 38.68 23.17Q37.32 14.28 32.15 10.02Q29 7.42 24.45 6.54L24.21 6.49L24.1 6.28Q22.87 3.88 20.93 2.42Q20.82 2.34 20.72 2.27Q19.68 1.52 18.53 1.09Q14.94 -0.26 10.24 1.37Q9.98 1.46 9.87 1.64Q9.77 1.8 9.79 2.04Q9.81 2.29 9.94 2.44Q10.07 2.58 10.3 2.63L10.31 2.63L10.32 2.63Q12.69 3.17 14.12 4.63Q14.72 5.24 15.15 6.02L15.47 6.6L14.82 6.75Q12.03 7.36 9.77 8.81Q9.71 8.85 9.64 8.89L9.48 9L9.38 9.07Q9.25 9.15 9.18 9.27Q9.11 9.39 9.09 9.54Q9.08 9.69 9.13 9.82Q9.17 9.95 9.28 10.06Q9.48 10.26 9.7 10.27Q9.89 10.29 10.09 10.15Q10.16 10.1 10.28 10.02Q10.34 9.99 10.36 9.97Q11.62 9.15 12.69 8.73Q15.21 7.74 18.53 7.5Q22.18 7.22 25.25 8.03L26.22 8.29L25.43 8.91Q23.17 10.7 22.24 13.03Q20.65 17.04 23.07 22.64L23.45 23.51L22.51 23.33Q17.46 22.33 13.72 20.83Q10.95 19.73 8.5 20.2Q5.35 20.81 2.71 23.99L1.81 25.07L1.82 23.67Q1.83 22.25 2.12 20.89Q2.76 17.87 4.76 15.15Q4.93 14.92 4.91 14.7Q4.9 14.49 4.71 14.3Q4.6 14.2 4.47 14.15Q4.34 14.1 4.19 14.11Q4.05 14.12 3.93 14.18Q3.81 14.25 3.73 14.37Q1 18.04 0.55 21.98Q0.27 24.49 0.91 27.1Q1.26 28.55 1.86 29.89Q4.16 35.05 10.07 38.6Q10.17 38.65 10.27 38.68Q10.34 38.69 10.42 38.69Q11.45 38.69 12.29 38.3Q13.12 37.91 13.78 37.15Q13.8 37.12 13.83 37.09Q15.47 35.08 14.71 31.1Q14.68 30.95 14.61 30.84Q14.52 30.72 14.38 30.65Q14.23 30.57 14.09 30.57Q13.99 30.57 13.89 30.6ZM18.77 2.58Q16.74 1.61 14.15 1.82L12.75 1.94L13.9 2.73Q15.58 3.89 16.62 6.07L16.78 6.4L17.14 6.35Q19.4 6.05 21.62 6.19L22.68 6.25L22.06 5.39Q20.66 3.48 18.77 2.58ZM14.8 2.79C16.02 3.82 16.66 4.99 17.07 5.85C18.17 5.71 19.52 5.61 21 5.66C21.22 5.67 21.43 5.68 21.65 5.69C21.53 5.52 21.39 5.34 21.24 5.17C19.99 3.69 18 2.28 14.97 2.29C14.72 2.29 14.46 2.3 14.19 2.32C14.41 2.47 14.61 2.63 14.8 2.79ZM23.71 13.05Q23.46 13.59 23.3 14.17L23.3 14.17Q23.29 14.19 23.29 14.2Q22.14 18.31 24.94 23.54L25.06 23.76L25.31 23.8Q32.4 24.78 36.95 23.04L37.33 22.89L37.26 22.48Q35.83 14.88 31.24 11.07Q29.78 9.85 28 9.02L27.76 8.91L27.53 9.05Q24.8 10.67 23.71 13.05ZM25.38 23.3C24.39 21.46 22.81 17.74 23.78 14.31C24.33 12.35 25.68 10.73 27.79 9.48C33.03 11.91 35.69 16.85 36.77 22.57C33.29 23.9 29.04 23.81 25.38 23.3ZM12.3 36.77Q12.58 36.56 12.82 36.28L12.82 36.28Q13.81 35.08 13.64 32.72L13.59 32.12L13.01 32.28Q9.8 33.15 7.04 32.38Q6.5 32.23 5.97 32.01L5.39 32.8Q7.11 34.85 9.19 36.42Q9.8 36.87 10.44 37.29L10.6 37.4L10.79 37.37Q11.67 37.24 12.3 36.77ZM13.16 33.27C13.18 34.44 12.93 35.36 12.44 35.96C11.88 36.62 11.12 36.81 10.72 36.87C10.03 36.42 8.22 35.14 6.46 33.25C6.23 33 6 32.74 5.78 32.47C6.09 32.6 6.41 32.71 6.73 32.81C8.65 33.37 10.69 33.34 12.65 32.88C12.81 32.84 12.98 32.8 13.14 32.76C13.15 32.93 13.16 33.1 13.16 33.27Z" fill="#F5FAFF" fill-opacity="1.000000" fill-rule="evenodd"/>
</svg>
