<svg width="52.385498" height="44.157303" viewBox="0 0 52.3855 44.1573" fill="none" xmlns="http://www.w3.org/2000/svg" xmlns:xlink="http://www.w3.org/1999/xlink">
	<desc>
			Created with Pixso.
	</desc>
	<defs/>
	<path id="Vector" d="M43.12 6.94C40.72 5.66 37.52 4.82 33.6 4.48C26.07 3.8 17.93 5.06 14.79 5.63C6.63 7.1 1.2 14.94 2.67 23.1L3.81 29.36C5.28 37.52 13.12 42.95 21.28 41.47C25.04 40.79 27.65 39.1 30.41 37.32C33.27 35.47 36.23 33.55 40.72 32.74C46.65 31.67 50.59 25.97 49.52 20.05L48.39 13.78C47.85 10.84 46.08 8.54 43.12 6.94ZM45.14 22.41C45.54 22.7 46.11 22.62 46.41 22.21C46.92 21.53 47.34 20.8 47.67 20.03L47.73 20.38C48.62 25.31 45.33 30.05 40.4 30.95C35.54 31.83 32.43 33.84 29.42 35.79C26.82 37.47 24.35 39.07 20.95 39.68C14.07 40.93 7.44 36.57 5.78 29.87C9.13 33.99 14.56 36.22 20.14 35.21C23.9 34.53 26.51 32.84 29.28 31.05C32.14 29.2 35.09 27.29 39.59 26.47C39.92 26.41 40.26 26.34 40.58 26.24C41.07 26.11 41.35 25.61 41.22 25.12C41.08 24.64 40.58 24.35 40.09 24.49C39.82 24.57 39.54 24.63 39.26 24.68C34.41 25.56 31.3 27.57 28.29 29.52C25.68 31.21 23.22 32.8 19.82 33.41C12.65 34.71 5.76 29.94 4.47 22.77C3.17 15.6 7.94 8.72 15.11 7.42C18.18 6.86 26.13 5.64 33.44 6.29C41.36 7 45.78 9.63 46.59 14.11C47.04 16.56 46.44 19.12 44.95 21.13C44.65 21.54 44.73 22.11 45.14 22.41Z" fill="#020202" fill-opacity="1.000000" fill-rule="nonzero"/>
	<path id="Vector" d="M43.12 6.94C40.72 5.66 37.52 4.82 33.6 4.48C26.07 3.8 17.93 5.06 14.79 5.63C6.63 7.1 1.2 14.94 2.67 23.1L3.81 29.36C5.28 37.52 13.12 42.95 21.28 41.47C25.04 40.79 27.65 39.1 30.41 37.32C33.27 35.47 36.23 33.55 40.72 32.74C46.65 31.67 50.59 25.97 49.52 20.05L48.39 13.78C47.85 10.84 46.08 8.54 43.12 6.94ZM22.57 4.78Q28.69 4.24 33.59 4.67Q39.45 5.2 43.02 7.12Q45.21 8.3 46.51 9.98Q46.95 10.56 47.29 11.2Q47.93 12.41 48.19 13.82L49.32 20.09Q49.53 21.25 49.49 22.4Q49.45 23.37 49.24 24.34Q49.02 25.28 48.65 26.16Q48.22 27.17 47.58 28.1Q46.94 29.03 46.14 29.79Q45.45 30.44 44.64 30.97Q43.81 31.51 42.91 31.89Q41.85 32.33 40.69 32.54Q39.07 32.84 37.55 33.35Q36.21 33.8 34.87 34.46Q33.75 35 32.49 35.76Q31.74 36.22 30.3 37.15Q28.93 38.03 28.24 38.45Q27.1 39.15 26.13 39.63Q24.97 40.21 23.84 40.6Q23.75 40.63 23.65 40.66Q22.48 41.05 21.24 41.28Q19.63 41.57 18.04 41.51Q16.69 41.46 15.36 41.16Q14.79 41.03 14.23 40.86Q13.42 40.6 12.63 40.26Q12.04 40 11.48 39.69Q10.8 39.31 10.15 38.87Q9.51 38.42 8.92 37.91Q8.43 37.49 7.98 37.03Q7.38 36.42 6.86 35.75Q6.5 35.28 6.18 34.79Q5.43 33.65 4.91 32.41Q4.3 30.93 4 29.33L2.87 23.06Q2.58 21.45 2.64 19.86Q2.69 18.51 2.99 17.18Q3.12 16.61 3.29 16.05Q3.54 15.24 3.89 14.45Q4.15 13.86 4.46 13.3Q4.84 12.61 5.28 11.97Q5.73 11.33 6.24 10.74Q6.66 10.25 7.12 9.8Q7.73 9.2 8.4 8.68Q8.86 8.32 9.35 8Q10.5 7.25 11.74 6.73Q13.21 6.11 14.82 5.82Q16.36 5.55 18.02 5.31Q20.32 4.99 22.57 4.78ZM46.84 21.22Q46.57 21.67 46.25 22.1Q46.16 22.21 46.05 22.28Q45.93 22.35 45.78 22.38Q45.64 22.4 45.51 22.36Q45.38 22.33 45.26 22.24Q45.14 22.16 45.07 22.04Q45 21.92 44.98 21.78Q44.95 21.63 44.99 21.5Q45.02 21.37 45.11 21.25Q45.65 20.51 46.04 19.7Q46.46 18.81 46.69 17.83Q46.94 16.75 46.94 15.68Q46.94 14.88 46.79 14.07Q46.58 12.91 46.06 11.92Q45.03 9.95 42.78 8.61Q39.44 6.62 33.46 6.09Q28.67 5.66 22.67 6.2Q20.46 6.4 18.21 6.72Q16.58 6.95 15.07 7.22Q13.62 7.49 12.3 8.04Q11.17 8.51 10.13 9.19Q9.12 9.85 8.25 10.67Q7.25 11.62 6.45 12.78Q5.65 13.94 5.11 15.21Q4.64 16.3 4.38 17.49Q4.11 18.7 4.06 19.92Q4.01 21.36 4.27 22.81Q4.53 24.26 5.09 25.58Q5.56 26.71 6.24 27.75Q6.9 28.76 7.72 29.63Q8.67 30.63 9.83 31.43Q10.98 32.23 12.25 32.77Q13.35 33.24 14.53 33.5Q15.74 33.77 16.96 33.82Q18.4 33.87 19.85 33.61Q20.16 33.56 20.47 33.49Q21.38 33.28 22.27 32.97Q23.34 32.6 24.44 32.05Q25.36 31.59 26.45 30.92Q27.1 30.53 28.4 29.69L28.4 29.69L28.4 29.69Q29.9 28.71 30.69 28.24Q32.01 27.45 33.17 26.88Q34.57 26.2 35.99 25.72Q37.58 25.19 39.3 24.88Q39.44 24.85 39.58 24.82Q39.87 24.76 40.15 24.68Q40.29 24.64 40.42 24.66Q40.56 24.67 40.69 24.75Q40.82 24.82 40.9 24.93Q40.98 25.03 41.02 25.18Q41.06 25.32 41.05 25.45Q41.03 25.59 40.96 25.72Q40.89 25.84 40.78 25.93Q40.67 26.01 40.53 26.05Q40.33 26.11 40.13 26.16Q39.84 26.22 39.55 26.28Q37.93 26.57 36.42 27.08Q35.07 27.54 33.73 28.19Q32.62 28.74 31.36 29.5Q30.61 29.95 29.17 30.88Q27.8 31.77 27.11 32.19Q25.97 32.88 24.99 33.36Q23.83 33.94 22.7 34.33Q22.61 34.36 22.52 34.39Q21.34 34.79 20.11 35.01Q18.86 35.24 17.62 35.25Q16.83 35.26 16.03 35.18Q15.15 35.09 14.29 34.91Q13.22 34.67 12.19 34.28Q11.35 33.95 10.55 33.53Q9.63 33.04 8.77 32.42Q7.89 31.79 7.12 31.04Q6.49 30.43 5.93 29.74L5.59 29.92Q5.91 31.21 6.46 32.39Q6.99 33.51 7.72 34.52Q8.41 35.47 9.23 36.28Q10.17 37.19 11.3 37.92Q12.44 38.67 13.68 39.16Q14.74 39.58 15.87 39.81Q17.02 40.05 18.18 40.09Q19.58 40.13 20.99 39.88Q21.3 39.82 21.6 39.75Q22.52 39.55 23.41 39.24Q24.47 38.87 25.57 38.31Q26.49 37.85 27.58 37.19Q28.23 36.79 29.53 35.95L29.53 35.95L29.53 35.95Q31.04 34.98 31.83 34.5Q33.14 33.71 34.31 33.15Q35.71 32.46 37.12 31.99Q38.72 31.45 40.43 31.14Q41.44 30.96 42.36 30.58Q43.14 30.25 43.86 29.78Q44.56 29.32 45.16 28.75Q45.86 28.09 46.41 27.29Q46.97 26.49 47.34 25.61Q47.66 24.85 47.85 24.03Q48.04 23.19 48.07 22.34Q48.11 21.34 47.93 20.34L47.74 19.34L47.48 19.95Q47.2 20.61 46.84 21.22ZM45.14 22.41C45.54 22.7 46.11 22.62 46.41 22.21C46.85 21.63 47.22 21 47.52 20.35C47.57 20.24 47.62 20.14 47.67 20.03L47.73 20.38C48.62 25.31 45.33 30.05 40.4 30.95C35.54 31.83 32.43 33.84 29.42 35.79C26.82 37.47 24.35 39.07 20.95 39.68C14.22 40.9 7.74 36.77 5.9 30.33C5.86 30.17 5.82 30.02 5.78 29.87C5.88 29.99 5.98 30.11 6.08 30.23C9.45 34.12 14.72 36.19 20.14 35.21C23.9 34.53 26.51 32.84 29.28 31.05C32.14 29.2 35.09 27.29 39.59 26.47C39.92 26.41 40.26 26.34 40.58 26.24C41.07 26.11 41.35 25.61 41.22 25.12C41.08 24.64 40.58 24.35 40.09 24.49C39.82 24.57 39.54 24.63 39.26 24.68C34.41 25.56 31.3 27.57 28.29 29.52C25.68 31.21 23.22 32.8 19.82 33.41C12.65 34.71 5.76 29.94 4.47 22.77C3.17 15.6 7.94 8.72 15.11 7.42C18.18 6.86 26.13 5.64 33.44 6.29C41.36 7 45.78 9.63 46.59 14.11C47.04 16.56 46.44 19.12 44.95 21.13C44.65 21.54 44.73 22.11 45.14 22.41Z" fill="#F5FAFF" fill-opacity="1.000000" fill-rule="evenodd"/>
	<path id="Vector" d="M44.51 23.11C44.21 22.7 43.64 22.61 43.23 22.9C43.23 22.9 43.22 22.91 43.22 22.91C42.81 23.21 42.73 23.78 43.03 24.19C43.25 24.47 43.6 24.6 43.92 24.54C44.06 24.51 44.19 24.46 44.3 24.37C44.7 24.08 44.79 23.52 44.51 23.11Z" fill="#020202" fill-opacity="1.000000" fill-rule="nonzero"/>
	<path id="Vector" d="M44.51 23.11C44.21 22.7 43.64 22.61 43.23 22.9C43.23 22.9 43.22 22.91 43.22 22.91C42.81 23.21 42.73 23.78 43.03 24.19C43.25 24.47 43.6 24.6 43.92 24.54C44.06 24.51 44.19 24.46 44.3 24.37C44.7 24.08 44.79 23.52 44.51 23.11ZM43.34 23.07Q43.35 23.06 43.35 23.06L43.35 23.06Q43.47 22.97 43.6 22.94Q43.74 22.91 43.88 22.94Q44.03 22.96 44.14 23.03Q44.26 23.11 44.34 23.23Q44.43 23.35 44.46 23.48Q44.49 23.61 44.47 23.75Q44.44 23.9 44.37 24.01Q44.3 24.13 44.18 24.21Q44.11 24.27 44.03 24.3Q43.96 24.33 43.89 24.34Q43.79 24.36 43.7 24.35Q43.6 24.34 43.51 24.3Q43.41 24.27 43.34 24.21Q43.26 24.15 43.19 24.07Q43.1 23.95 43.07 23.82Q43.04 23.69 43.06 23.54Q43.08 23.39 43.15 23.27Q43.22 23.16 43.33 23.07L43.34 23.07Z" fill="#F5FAFF" fill-opacity="1.000000" fill-rule="evenodd"/>
	<path id="Vector" d="M16.94 12.62C14.43 13.08 12.73 15.29 13.14 17.57C13.55 19.84 15.93 21.32 18.43 20.86C20.94 20.41 22.64 18.19 22.23 15.92C21.82 13.65 19.45 12.17 16.94 12.62ZM18.11 19.07C16.59 19.35 15.17 18.53 14.93 17.24C14.7 15.96 15.75 14.69 17.26 14.41C18.78 14.14 20.21 14.96 20.44 16.25C20.67 17.53 19.62 18.8 18.11 19.07Z" fill="#020202" fill-opacity="1.000000" fill-rule="nonzero"/>
	<path id="Vector" d="M16.94 12.62C14.43 13.08 12.73 15.29 13.14 17.57C13.55 19.84 15.93 21.32 18.43 20.86C20.94 20.41 22.64 18.19 22.23 15.92C21.82 13.65 19.45 12.17 16.94 12.62ZM13.53 18.21Q13.4 17.88 13.34 17.53Q13.27 17.18 13.28 16.82Q13.29 16.39 13.4 15.95Q13.45 15.77 13.51 15.6Q13.72 15.04 14.1 14.53Q14.25 14.34 14.41 14.17Q14.82 13.75 15.33 13.44Q15.59 13.28 15.87 13.16Q16.39 12.92 16.98 12.82Q17.56 12.71 18.13 12.75Q18.43 12.77 18.73 12.82Q19.32 12.94 19.85 13.19Q20.06 13.29 20.26 13.42Q20.8 13.75 21.2 14.21Q21.31 14.35 21.42 14.5Q21.68 14.87 21.84 15.27Q21.97 15.6 22.03 15.96Q22.1 16.31 22.09 16.66Q22.08 17.1 21.97 17.54Q21.92 17.71 21.86 17.88Q21.65 18.45 21.27 18.95Q21.12 19.14 20.96 19.31Q20.55 19.74 20.04 20.05Q19.78 20.21 19.51 20.33Q18.98 20.56 18.4 20.67Q17.81 20.77 17.24 20.74Q16.94 20.72 16.64 20.66Q16.05 20.55 15.52 20.3Q15.31 20.19 15.11 20.07Q14.57 19.73 14.17 19.27Q14.06 19.14 13.95 18.99Q13.69 18.62 13.53 18.21ZM14.7 16.86Q14.7 17.07 14.74 17.28Q14.77 17.49 14.85 17.68Q14.96 17.97 15.15 18.23Q15.19 18.28 15.24 18.33Q15.52 18.68 15.94 18.91Q16.01 18.95 16.08 18.99Q16.49 19.2 16.97 19.28Q17.13 19.31 17.29 19.32Q17.71 19.35 18.14 19.27Q18.58 19.19 18.96 19.01Q19.11 18.95 19.24 18.87Q19.67 18.62 19.98 18.28Q20.03 18.22 20.08 18.16Q20.39 17.79 20.54 17.37Q20.56 17.31 20.58 17.25Q20.67 16.94 20.67 16.63Q20.67 16.42 20.63 16.21Q20.6 16 20.52 15.81Q20.41 15.52 20.22 15.26Q20.18 15.21 20.14 15.16Q19.85 14.81 19.43 14.57Q19.37 14.53 19.3 14.5Q18.88 14.29 18.4 14.21Q18.24 14.18 18.09 14.17Q17.66 14.14 17.23 14.22Q16.8 14.3 16.41 14.47Q16.27 14.54 16.13 14.62Q15.71 14.86 15.39 15.2Q15.34 15.26 15.29 15.32Q14.98 15.69 14.83 16.12Q14.81 16.18 14.79 16.24Q14.7 16.55 14.7 16.86ZM18.11 19.07C16.59 19.35 15.17 18.53 14.93 17.24C14.7 15.96 15.75 14.69 17.26 14.41C18.78 14.14 20.21 14.96 20.44 16.25C20.67 17.53 19.62 18.8 18.11 19.07Z" fill="#F5FAFF" fill-opacity="1.000000" fill-rule="evenodd"/>
</svg>
